<svg xmlns="http://www.w3.org/2000/svg" fill="none" viewBox="0 0 130 56">
  <path fill="url(#a)" fill-opacity="0.66" d="M73.1166 5L65.4955 32.807L57.8744 5H44.5156L57.1204 50.9908H60.5117H70.4792H73.8705L86.4753 5H73.1166Z"/>
  <path fill="#000" d="M6.478 32.401C3.599 30.808 2.627 30.272 2.627 29.031 2.627 28.065 3.644 27.367 5.048 27.367 6.342 27.367 7.559 27.877 8.664 28.886L8.73 28.946V26.442L8.711 26.431C7.621 25.75 6.379 25.391 5.118 25.391 2.4 25.391.5 27.011.5 29.331.5 30.196.749 30.903 1.283 31.556 1.982 32.394 2.715 32.81 5.143 34.193 5.9 34.621 7.17 35.514 7.17 36.706 7.17 37.897 5.947 38.604 4.796 38.604 2.45 38.604 1.083 36.992.635 36.463L.565 36.381V39.18L.581 39.192C1.832 40.086 3.288 40.558 4.795 40.558 7.471 40.558 9.341 38.893 9.341 36.511 9.341 35.562 9.055 34.734 8.492 34.05 7.996 33.42 7.336 32.88 6.475 32.401H6.478ZM24.763 31.946H16.557V25.586H14.352V40.367H16.557V33.966H24.763V40.367H26.987V25.586H24.763V31.946ZM35.143 25.586H32.938V40.367H35.143V25.586ZM52.829 36.925 42.91 25.586H41.141V40.367H43.216V29.117L53.035 40.354 53.048 40.367H54.927V25.586H52.829V36.925ZM66.044 32.401C63.161 30.81 62.193 30.274 62.193 29.031 62.193 28.065 63.21 27.367 64.614 27.367 65.909 27.367 67.126 27.879 68.231 28.886L68.296 28.946V26.442L68.278 26.431C67.188 25.75 65.943 25.391 64.681 25.391 61.962 25.391 60.063 27.011 60.063 29.331 60.063 30.197 60.313 30.904 60.847 31.556 61.545 32.393 62.277 32.81 64.707 34.193 65.464 34.619 66.736 35.511 66.736 36.704 66.736 37.897 65.511 38.602 64.359 38.602 62.011 38.602 60.649 36.99 60.199 36.462L60.129 36.379V39.179L60.147 39.19C61.398 40.084 62.854 40.557 64.359 40.557 65.704 40.557 66.85 40.159 67.675 39.406 68.47 38.68 68.907 37.651 68.907 36.507 68.907 35.557 68.621 34.728 68.057 34.047 67.562 33.415 66.902 32.874 66.042 32.398L66.044 32.401ZM76.11 33.901H82.158V31.946H76.11V27.542H82.376V25.586H73.906V40.367H82.571V38.389H76.11V33.901ZM95.027 34.996H97.869V37.989C96.52 38.421 95.761 38.624 94.677 38.624 91.202 38.624 88.776 36.301 88.776 32.974 88.776 29.45 91.676 27.344 94.481 27.344 95.444 27.344 97.409 27.542 99.712 28.869L99.77 28.904V26.653L99.746 26.643C98.121 25.957 96.605 25.389 94.525 25.389 89.304 25.389 86.484 29.362 86.484 33.101 86.484 34.939 87.178 36.757 88.391 38.091 89.859 39.705 92.009 40.56 94.609 40.56 96.983 40.56 98.763 39.911 100.045 39.347L100.067 39.338V33.062H95.024V34.996H95.027ZM110.021 25.498 103.656 40.31 103.633 40.365H105.888L107.754 36.033H113.989L115.953 40.342 115.963 40.365H118.218L111.569 25.498H110.022 110.021ZM113.087 34.055H108.61L110.762 28.872 113.087 34.055ZM124.039 38.389V33.901H130.091V31.946H124.039V27.542H130.307V25.586H121.836V40.367H130.5V38.389H124.039Z"/>
  <defs>
    <linearGradient id="a" x1="65.4955" x2="65.4955" y1="50.9908" y2="5" gradientUnits="userSpaceOnUse">
      <stop stop-color="#898989"/>
      <stop offset="0.28" stop-color="#BABABA"/>
      <stop offset="0.44" stop-color="#C9C9C9"/>
      <stop offset="0.64" stop-color="#BABABA"/>
      <stop offset="1" stop-color="#898989"/>
    </linearGradient>
  </defs>
</svg>