<?xml version="1.0" encoding="UTF-8"?>
<svg id="Layer_1" data-name="Layer 1" xmlns="http://www.w3.org/2000/svg" viewBox="0 0 130 45.99">
  <defs>
    <style>
      .cls-1 {
        fill: #fff;
      }

      .cls-2 {
        fill: rgba(255, 255, 255, .66);
      }
    </style>
  </defs>
  <path class="cls-2" d="M72.62,0l-7.62,27.81L57.37,0h-13.36l12.6,45.99h16.75L85.98,0h-13.36Z"/>
  <path class="cls-1" d="M5.98,27.4c-2.88-1.59-3.85-2.13-3.85-3.37,0-.97,1.02-1.66,2.42-1.66,1.29,0,2.51,.51,3.62,1.52l.07,.06v-2.5h-.02c-1.09-.69-2.33-1.05-3.59-1.05-2.72,0-4.62,1.62-4.62,3.94,0,.86,.25,1.57,.78,2.23,.7,.84,1.43,1.25,3.86,2.64,.76,.43,2.03,1.32,2.03,2.51s-1.22,1.9-2.37,1.9c-2.35,0-3.71-1.61-4.16-2.14l-.07-.08v2.8h.02c1.25,.91,2.71,1.38,4.21,1.38,2.68,0,4.55-1.66,4.55-4.05,0-.95-.29-1.78-.85-2.46-.5-.63-1.16-1.17-2.02-1.65h0Zm18.29-.46h-8.21v-6.36h-2.2v14.78h2.2v-6.4h8.21v6.4h2.22v-14.78h-2.22v6.36Zm10.38-6.36h-2.21v14.78h2.21v-14.78Zm17.69,11.34l-9.92-11.34h-1.77v14.78h2.08v-11.25l9.82,11.24h.01s1.88,.01,1.88,.01v-14.78h-2.1v11.34Zm13.22-4.52c-2.88-1.59-3.85-2.13-3.85-3.37,0-.97,1.02-1.66,2.42-1.66,1.29,0,2.51,.51,3.62,1.52l.06,.06v-2.5h-.02c-1.09-.69-2.33-1.05-3.6-1.05-2.72,0-4.62,1.62-4.62,3.94,0,.87,.25,1.57,.78,2.23,.7,.84,1.43,1.25,3.86,2.64,.76,.43,2.03,1.32,2.03,2.51s-1.22,1.9-2.38,1.9c-2.35,0-3.71-1.61-4.16-2.14l-.07-.08v2.8h.02c1.25,.9,2.71,1.38,4.21,1.38,1.35,0,2.49-.4,3.32-1.15,.79-.73,1.23-1.75,1.23-2.9,0-.95-.29-1.78-.85-2.46-.5-.63-1.15-1.17-2.01-1.65h0Zm10.07,1.5h6.05v-1.96h-6.05v-4.4h6.27v-1.96h-8.47v14.78h8.67v-1.98h-6.46v-4.49Zm18.92,1.09h2.84v2.99c-1.35,.43-2.11,.64-3.19,.64-3.47,0-5.9-2.32-5.9-5.65,0-3.52,2.9-5.63,5.71-5.63,.96,0,2.93,.2,5.23,1.52l.06,.03v-2.25h-.02c-1.62-.7-3.14-1.26-5.22-1.26-5.22,0-8.04,3.97-8.04,7.71,0,1.84,.69,3.66,1.91,4.99,1.47,1.61,3.62,2.47,6.22,2.47,2.37,0,4.15-.65,5.44-1.21h.02v-6.28h-5.04v1.93h0Zm14.99-9.5l-6.37,14.81-.02,.06h2.25l1.87-4.33h6.24l1.96,4.31v.02h2.26l-6.65-14.87h-1.55Zm3.07,8.56h-4.48l2.15-5.18,2.32,5.18Zm10.95,4.33v-4.49h6.05v-1.96h-6.05v-4.4h6.27v-1.96h-8.47v14.78h8.66v-1.98h-6.46Z"/>
</svg>